<?xml version="1.0" standalone="no"?>
<!DOCTYPE svg PUBLIC "-//W3C//DTD SVG 20010904//EN"
 "http://www.w3.org/TR/2001/REC-SVG-20010904/DTD/svg10.dtd">
<svg version="1.0" xmlns="http://www.w3.org/2000/svg"
 width="1024.000000pt" height="1024.000000pt" viewBox="0 0 1024.000000 1024.000000"
 preserveAspectRatio="xMidYMid meet">
<metadata>
Created by potrace 1.11, written by Peter Selinger 2001-2013
</metadata>
<g transform="translate(0.000000,1024.000000) scale(0.100000,-0.100000)"
fill="#000000" stroke="none">
<path d="M4110 9823 c0 -5 -19 -28 -43 -53 -23 -25 -57 -64 -76 -85 -27 -32
-138 -156 -186 -209 -5 -6 -41 -46 -78 -89 l-69 -77 1377 0 c1310 0 1377 1
1364 18 -8 9 -16 19 -19 22 -3 3 -46 52 -94 110 -49 58 -94 110 -100 115 -6 6
-33 37 -61 70 -27 33 -52 62 -55 65 -3 3 -27 31 -53 63 l-49 57 -929 0 c-511
0 -929 -3 -929 -7z"/>
<path d="M3655 9020 c-2 -3 45 -55 103 -116 190 -197 488 -508 544 -566 29
-31 131 -137 225 -235 94 -98 218 -227 276 -288 l106 -110 -42 -7 c-23 -4 -96
-14 -162 -23 -140 -19 -321 -54 -461 -91 -54 -14 -107 -27 -116 -29 -54 -12
-280 -84 -383 -123 -345 -128 -627 -278 -889 -473 l-86 -63 0 -781 1 -780 410
415 c413 418 1123 1138 1539 1560 124 126 446 452 715 725 270 274 575 583
678 688 103 106 213 217 243 248 l55 55 -1377 0 c-757 -1 -1377 -3 -1379 -6z"/>
<path d="M5360 7620 c-25 -27 -101 -107 -170 -178 -69 -71 -231 -238 -360
-372 -129 -134 -283 -293 -342 -354 -60 -61 -108 -113 -108 -116 0 -5 3192 -6
3210 -1 6 1 -24 29 -140 127 -421 354 -885 621 -1374 791 -208 72 -473 133
-636 148 -31 2 -41 -3 -80 -45z"/>
<path d="M2310 6471 c-69 -92 -131 -176 -137 -187 -7 -10 -30 -44 -51 -74
-288 -419 -520 -900 -627 -1305 -24 -92 -26 -100 -44 -195 -19 -99 -21 -114
-27 -214 l-7 -100 131 -125 c249 -240 535 -517 711 -688 97 -94 178 -169 180
-167 6 5 5 3214 0 3219 -2 2 -60 -72 -129 -164z"/>
<path d="M6358 6290 l-36 -5 525 -530 c289 -291 805 -812 1146 -1157 341 -345
623 -625 627 -623 10 6 0 296 -14 420 -21 179 -32 245 -68 410 -103 478 -334
1017 -607 1415 -24 36 -46 67 -48 69 -5 6 -1481 7 -1525 1z"/>
<path d="M7470 3019 c0 -1293 3 -1619 13 -1612 40 25 212 189 296 284 111 125
117 133 211 264 255 355 447 775 559 1224 41 162 44 176 63 304 l12 78 -59 55
c-59 55 -286 270 -376 356 -25 24 -110 104 -189 178 -79 74 -158 149 -175 165
-18 17 -94 89 -170 160 -76 72 -145 138 -154 148 -8 9 -19 17 -23 17 -5 0 -8
-729 -8 -1621z"/>
<path d="M1425 3913 c2 -21 7 -67 11 -103 3 -36 8 -81 9 -100 2 -19 8 -73 15
-120 6 -47 13 -96 15 -110 12 -85 50 -293 80 -430 94 -438 268 -857 462 -1117
63 -84 160 -182 182 -184 53 -5 1451 -3 1451 2 0 3 -8 14 -18 25 -24 24 -1168
1154 -1385 1368 -89 87 -309 304 -489 482 -180 178 -329 324 -332 324 -2 0 -3
-17 -1 -37z"/>
<path d="M7054 2494 c-100 -104 -207 -216 -239 -249 -31 -33 -142 -148 -245
-255 -198 -206 -213 -221 -490 -511 -96 -100 -233 -243 -305 -317 -71 -74
-150 -156 -175 -182 -25 -26 -128 -134 -230 -239 -102 -106 -214 -223 -249
-259 -35 -37 -84 -89 -110 -115 l-46 -48 85 6 c119 8 266 22 310 30 14 3 41 7
60 9 19 3 64 9 100 15 36 6 83 13 105 17 22 3 92 17 155 31 63 13 123 26 132
28 70 15 265 71 373 108 377 128 665 288 878 489 l78 73 -3 779 -3 778 -181
-188z"/>
<path d="M2501 1390 l-54 -5 76 -71 c342 -321 826 -606 1357 -798 197 -71 528
-163 654 -182 22 -3 45 -8 50 -11 5 -3 54 42 110 100 55 58 182 190 281 293
99 103 198 206 220 229 22 23 121 126 220 230 99 103 186 194 193 201 6 7 12
14 12 16 0 5 -3061 3 -3119 -2z"/>
</g>
</svg>
