<?xml version="1.0" encoding="UTF-8" standalone="no"?>
<svg width="124px" height="24px" viewBox="0 0 124 24" version="1.1" xmlns="http://www.w3.org/2000/svg" xmlns:xlink="http://www.w3.org/1999/xlink" xmlns:sketch="http://www.bohemiancoding.com/sketch/ns">
    <!-- Generator: Sketch 3.5.1 (25234) - http://www.bohemiancoding.com/sketch -->
    <title>banner-more-posts</title>
    <desc>Created with Sketch.</desc>
    <defs></defs>
    <g id="Blog" stroke="none" stroke-width="1" fill="none" fill-rule="evenodd" sketch:type="MSPage">
        <g id="06-Blog,-Desktop" sketch:type="MSArtboardGroup" transform="translate(-1316.000000, -746.000000)">
            <g id="banner-more-posts" sketch:type="MSLayerGroup" transform="translate(1316.000000, 746.000000)">
                <rect id="Button,-Outline" fill="#444444" sketch:type="MSShapeGroup" x="0" y="0" width="124" height="24"></rect>
                <path d="M16.6037143,16 L17.4507143,16 L17.4507143,9.774 L20.2557143,13.888 L20.2997143,13.888 L23.1047143,9.763 L23.1047143,16 L23.9737143,16 L23.9737143,8.3 L23.0937143,8.3 L20.2887143,12.502 L17.4837143,8.3 L16.6037143,8.3 L16.6037143,16 Z M30.1195715,16.132 C32.4625715,16.132 34.0575715,14.273 34.0575715,12.15 L34.0575715,12.128 C34.0575715,10.005 32.4845715,8.168 30.1415715,8.168 C27.7985715,8.168 26.2035715,10.027 26.2035715,12.15 L26.2035715,12.172 C26.2035715,14.295 27.7765715,16.132 30.1195715,16.132 L30.1195715,16.132 Z M30.1415715,15.329 C28.3815715,15.329 27.1055715,13.899 27.1055715,12.15 L27.1055715,12.128 C27.1055715,10.379 28.3595715,8.971 30.1195715,8.971 C31.8795715,8.971 33.1555715,10.401 33.1555715,12.15 L33.1555715,12.172 C33.1555715,13.921 31.9015715,15.329 30.1415715,15.329 L30.1415715,15.329 Z M36.2874286,16 L37.1564286,16 L37.1564286,13.008 L39.3564286,13.008 L41.5894286,16 L42.6564286,16 L40.2914286,12.854 C41.5014286,12.634 42.3814286,11.886 42.3814286,10.61 L42.3814286,10.588 C42.3814286,9.983 42.1614286,9.444 41.7874286,9.07 C41.3034286,8.586 40.5444286,8.3 39.5984286,8.3 L36.2874286,8.3 L36.2874286,16 Z M37.1564286,12.227 L37.1564286,9.103 L39.5324286,9.103 C40.7754286,9.103 41.5014286,9.675 41.5014286,10.621 L41.5014286,10.643 C41.5014286,11.633 40.6764286,12.227 39.5214286,12.227 L37.1564286,12.227 Z M44.6332857,16 L50.2542857,16 L50.2542857,15.208 L45.5022857,15.208 L45.5022857,12.513 L49.7042857,12.513 L49.7042857,11.721 L45.5022857,11.721 L45.5022857,9.092 L50.1992857,9.092 L50.1992857,8.3 L44.6332857,8.3 L44.6332857,16 Z M56.089,16 L56.958,16 L56.958,13.283 L58.828,13.283 C60.467,13.283 61.853,12.425 61.853,10.764 L61.853,10.742 C61.853,9.224 60.709,8.3 58.971,8.3 L56.089,8.3 L56.089,16 Z M56.958,12.491 L56.958,9.103 L58.905,9.103 C60.148,9.103 60.973,9.675 60.973,10.775 L60.973,10.797 C60.973,11.809 60.137,12.491 58.861,12.491 L56.958,12.491 Z M67.4048571,16.132 C69.7478571,16.132 71.3428571,14.273 71.3428571,12.15 L71.3428571,12.128 C71.3428571,10.005 69.7698571,8.168 67.4268571,8.168 C65.0838571,8.168 63.4888571,10.027 63.4888571,12.15 L63.4888571,12.172 C63.4888571,14.295 65.0618571,16.132 67.4048571,16.132 L67.4048571,16.132 Z M67.4268571,15.329 C65.6668571,15.329 64.3908571,13.899 64.3908571,12.15 L64.3908571,12.128 C64.3908571,10.379 65.6448571,8.971 67.4048571,8.971 C69.1648571,8.971 70.4408571,10.401 70.4408571,12.15 L70.4408571,12.172 C70.4408571,13.921 69.1868571,15.329 67.4268571,15.329 L67.4268571,15.329 Z M76.1577143,16.11 C77.6867143,16.11 78.7867143,15.252 78.7867143,13.932 L78.7867143,13.91 C78.7867143,12.733 77.9947143,12.106 76.2787143,11.732 C74.5847143,11.369 74.1887143,10.962 74.1887143,10.236 L74.1887143,10.214 C74.1887143,9.521 74.8267143,8.971 75.8277143,8.971 C76.6197143,8.971 77.3347143,9.224 78.0497143,9.807 L78.5557143,9.136 C77.7747143,8.509 76.9717143,8.19 75.8497143,8.19 C74.3867143,8.19 73.3197143,9.081 73.3197143,10.291 L73.3197143,10.313 C73.3197143,11.578 74.1337143,12.15 75.9047143,12.535 C77.5217143,12.876 77.9067143,13.283 77.9067143,13.998 L77.9067143,14.02 C77.9067143,14.779 77.2247143,15.329 76.1907143,15.329 C75.1237143,15.329 74.3537143,14.966 73.5507143,14.24 L73.0117143,14.878 C73.9357143,15.703 74.9367143,16.11 76.1577143,16.11 L76.1577143,16.11 Z M82.8205714,16 L83.7005714,16 L83.7005714,9.103 L86.2855714,9.103 L86.2855714,8.3 L80.2355714,8.3 L80.2355714,9.103 L82.8205714,9.103 L82.8205714,16 Z M90.7814285,16.11 C92.3104285,16.11 93.4104285,15.252 93.4104285,13.932 L93.4104285,13.91 C93.4104285,12.733 92.6184285,12.106 90.9024285,11.732 C89.2084285,11.369 88.8124285,10.962 88.8124285,10.236 L88.8124285,10.214 C88.8124285,9.521 89.4504285,8.971 90.4514285,8.971 C91.2434285,8.971 91.9584285,9.224 92.6734285,9.807 L93.1794285,9.136 C92.3984285,8.509 91.5954285,8.19 90.4734285,8.19 C89.0104285,8.19 87.9434285,9.081 87.9434285,10.291 L87.9434285,10.313 C87.9434285,11.578 88.7574285,12.15 90.5284285,12.535 C92.1454285,12.876 92.5304285,13.283 92.5304285,13.998 L92.5304285,14.02 C92.5304285,14.779 91.8484285,15.329 90.8144285,15.329 C89.7474285,15.329 88.9774285,14.966 88.1744285,14.24 L87.6354285,14.878 C88.5594285,15.703 89.5604285,16.11 90.7814285,16.11 L90.7814285,16.11 Z" id="MORE-POSTS" fill="#FFFFFF" sketch:type="MSShapeGroup"></path>
                <path d="M108,7.13137085 L106.730824,6 L100,12 L106.730824,18 L108,16.8686292 L102.538353,12 L108,7.13137085 L108,7.13137085 Z" id="Arrow,-Next" fill="#FFFFFF" sketch:type="MSShapeGroup" transform="translate(104.000000, 12.000000) scale(-1, 1) translate(-104.000000, -12.000000) "></path>
            </g>
        </g>
    </g>
</svg>