<?xml version="1.0" encoding="UTF-8" standalone="no"?>
<svg width="124px" height="24px" viewBox="0 0 124 24" version="1.1" xmlns="http://www.w3.org/2000/svg" xmlns:xlink="http://www.w3.org/1999/xlink" xmlns:sketch="http://www.bohemiancoding.com/sketch/ns">
    <!-- Generator: Sketch 3.5.1 (25234) - http://www.bohemiancoding.com/sketch -->
    <title>banner-more-photos</title>
    <desc>Created with Sketch.</desc>
    <defs></defs>
    <g id="Blog" stroke="none" stroke-width="1" fill="none" fill-rule="evenodd" sketch:type="MSPage">
        <g id="06-Blog,-Desktop" sketch:type="MSArtboardGroup" transform="translate(-1316.000000, -746.000000)">
            <g id="banner-more-photos" sketch:type="MSLayerGroup" transform="translate(1316.000000, 746.000000)">
                <rect id="Button,-Outline" fill="#444444" sketch:type="MSShapeGroup" x="0" y="0" width="124" height="24"></rect>
                <path d="M11.4352858,16 L12.2822858,16 L12.2822858,9.774 L15.0872858,13.888 L15.1312858,13.888 L17.9362858,9.763 L17.9362858,16 L18.8052858,16 L18.8052858,8.3 L17.9252858,8.3 L15.1202858,12.502 L12.3152858,8.3 L11.4352858,8.3 L11.4352858,16 Z M24.9511429,16.132 C27.2941429,16.132 28.8891429,14.273 28.8891429,12.15 L28.8891429,12.128 C28.8891429,10.005 27.3161429,8.168 24.9731429,8.168 C22.6301429,8.168 21.0351429,10.027 21.0351429,12.15 L21.0351429,12.172 C21.0351429,14.295 22.6081429,16.132 24.9511429,16.132 L24.9511429,16.132 Z M24.9731429,15.329 C23.2131429,15.329 21.9371429,13.899 21.9371429,12.15 L21.9371429,12.128 C21.9371429,10.379 23.1911429,8.971 24.9511429,8.971 C26.7111429,8.971 27.9871429,10.401 27.9871429,12.15 L27.9871429,12.172 C27.9871429,13.921 26.7331429,15.329 24.9731429,15.329 L24.9731429,15.329 Z M31.119,16 L31.988,16 L31.988,13.008 L34.188,13.008 L36.421,16 L37.488,16 L35.123,12.854 C36.333,12.634 37.213,11.886 37.213,10.61 L37.213,10.588 C37.213,9.983 36.993,9.444 36.619,9.07 C36.135,8.586 35.376,8.3 34.43,8.3 L31.119,8.3 L31.119,16 Z M31.988,12.227 L31.988,9.103 L34.364,9.103 C35.607,9.103 36.333,9.675 36.333,10.621 L36.333,10.643 C36.333,11.633 35.508,12.227 34.353,12.227 L31.988,12.227 Z M39.4648572,16 L45.0858572,16 L45.0858572,15.208 L40.3338572,15.208 L40.3338572,12.513 L44.5358572,12.513 L44.5358572,11.721 L40.3338572,11.721 L40.3338572,9.092 L45.0308572,9.092 L45.0308572,8.3 L39.4648572,8.3 L39.4648572,16 Z M50.9205714,16 L51.7895714,16 L51.7895714,13.283 L53.6595714,13.283 C55.2985714,13.283 56.6845714,12.425 56.6845714,10.764 L56.6845714,10.742 C56.6845714,9.224 55.5405714,8.3 53.8025714,8.3 L50.9205714,8.3 L50.9205714,16 Z M51.7895714,12.491 L51.7895714,9.103 L53.7365714,9.103 C54.9795714,9.103 55.8045714,9.675 55.8045714,10.775 L55.8045714,10.797 C55.8045714,11.809 54.9685714,12.491 53.6925714,12.491 L51.7895714,12.491 Z M58.6614286,16 L59.5304286,16 L59.5304286,12.535 L63.9744286,12.535 L63.9744286,16 L64.8434286,16 L64.8434286,8.3 L63.9744286,8.3 L63.9744286,11.721 L59.5304286,11.721 L59.5304286,8.3 L58.6614286,8.3 L58.6614286,16 Z M70.9892857,16.132 C73.3322857,16.132 74.9272857,14.273 74.9272857,12.15 L74.9272857,12.128 C74.9272857,10.005 73.3542857,8.168 71.0112857,8.168 C68.6682857,8.168 67.0732857,10.027 67.0732857,12.15 L67.0732857,12.172 C67.0732857,14.295 68.6462857,16.132 70.9892857,16.132 L70.9892857,16.132 Z M71.0112857,15.329 C69.2512857,15.329 67.9752857,13.899 67.9752857,12.15 L67.9752857,12.128 C67.9752857,10.379 69.2292857,8.971 70.9892857,8.971 C72.7492857,8.971 74.0252857,10.401 74.0252857,12.15 L74.0252857,12.172 C74.0252857,13.921 72.7712857,15.329 71.0112857,15.329 L71.0112857,15.329 Z M78.6641428,16 L79.5441428,16 L79.5441428,9.103 L82.1291428,9.103 L82.1291428,8.3 L76.0791428,8.3 L76.0791428,9.103 L78.6641428,9.103 L78.6641428,16 Z M87.197,16.132 C89.54,16.132 91.135,14.273 91.135,12.15 L91.135,12.128 C91.135,10.005 89.562,8.168 87.219,8.168 C84.876,8.168 83.281,10.027 83.281,12.15 L83.281,12.172 C83.281,14.295 84.854,16.132 87.197,16.132 L87.197,16.132 Z M87.219,15.329 C85.459,15.329 84.183,13.899 84.183,12.15 L84.183,12.128 C84.183,10.379 85.437,8.971 87.197,8.971 C88.957,8.971 90.233,10.401 90.233,12.15 L90.233,12.172 C90.233,13.921 88.979,15.329 87.219,15.329 L87.219,15.329 Z M95.9498571,16.11 C97.4788571,16.11 98.5788571,15.252 98.5788571,13.932 L98.5788571,13.91 C98.5788571,12.733 97.7868571,12.106 96.0708571,11.732 C94.3768571,11.369 93.9808571,10.962 93.9808571,10.236 L93.9808571,10.214 C93.9808571,9.521 94.6188571,8.971 95.6198571,8.971 C96.4118571,8.971 97.1268571,9.224 97.8418571,9.807 L98.3478571,9.136 C97.5668571,8.509 96.7638571,8.19 95.6418571,8.19 C94.1788571,8.19 93.1118571,9.081 93.1118571,10.291 L93.1118571,10.313 C93.1118571,11.578 93.9258571,12.15 95.6968571,12.535 C97.3138571,12.876 97.6988571,13.283 97.6988571,13.998 L97.6988571,14.02 C97.6988571,14.779 97.0168571,15.329 95.9828571,15.329 C94.9158571,15.329 94.1458571,14.966 93.3428571,14.24 L92.8038571,14.878 C93.7278571,15.703 94.7288571,16.11 95.9498571,16.11 L95.9498571,16.11 Z" id="MORE-PHOTOS" fill="#FFFFFF" sketch:type="MSShapeGroup"></path>
                <path d="M114,7.13137085 L112.730824,6 L106,12 L112.730824,18 L114,16.8686292 L108.538353,12 L114,7.13137085 L114,7.13137085 Z" id="Arrow,-Next" fill="#FFFFFF" sketch:type="MSShapeGroup" transform="translate(110.000000, 12.000000) scale(-1, 1) translate(-110.000000, -12.000000) "></path>
            </g>
        </g>
    </g>
</svg>