<?xml version="1.0" encoding="UTF-8" standalone="no"?>
<svg width="280px" height="27px" viewBox="0 0 280 27" version="1.1" xmlns="http://www.w3.org/2000/svg" xmlns:xlink="http://www.w3.org/1999/xlink">
    <!-- Generator: Sketch 3.6.1 (26313) - http://www.bohemiancoding.com/sketch -->
    <title>logo-on-white</title>
    <desc>Created with Sketch.</desc>
    <defs></defs>
    <g id="Landing-Page" stroke="none" stroke-width="1" fill="none" fill-rule="evenodd">
        <g id="01-Landing-Page,-Desktop" transform="translate(-130.000000, -37.000000)">
            <g id="Header,-Landing-Page" transform="translate(-2.000000, 20.000000)">
                <g id="Logo-+-Nav" transform="translate(132.000000, 17.000000)">
                    <g id="logo-on-white">
                        <g id="icon" fill="#D9BD21">
                            <path d="M6.36222138,2.51648182 L9.99693859,6.24166364 C9.99693859,6.24166364 6.4119116,6.47975455 3.86630621,8.50966364 L3.86874999,12.8967545 L14.2865892,2.51239091 L6.36222138,2.51648182 Z" id="Fill-28"></path>
                            <path d="M6.4088976,1.71425455 L14.2860189,1.71016364 L13.0119944,0.248072727 L7.72935404,0.251345455 L6.4088976,1.71425455 Z" id="Fill-30"></path>
                            <path d="M11.4118064,6.33493636 C11.4118064,6.33493636 14.4779372,6.47484545 17.6858073,9.34993636 L8.44179771,9.35566364 L11.4118064,6.33493636 Z" id="Fill-32"></path>
                            <path d="M14.0074279,10.2021545 L18.4876934,10.1997 C18.4876934,10.1997 20.7074613,13.0289727 20.6154122,16.7557909 L14.0074279,10.2021545 Z" id="Fill-34"></path>
                            <path d="M17.3140267,14.8219364 L20.6180189,17.8884818 C20.6180189,17.8884818 20.2441204,21.6161182 17.3189143,23.9757545 L17.3140267,14.8219364 Z" id="Fill-36"></path>
                            <path d="M10.1495935,26.9995909 C10.1495935,26.9995909 14.6510384,26.8654091 16.6573827,24.7315909 L16.654939,20.3436818 L10.1495935,26.9995909 Z" id="Fill-38"></path>
                            <path d="M9.08809637,27 L12.0344819,23.9792727 L2.93139699,23.9841818 C2.93139699,23.9841818 4.91411812,26.2006364 9.08809637,27" id="Fill-40"></path>
                            <path d="M2.22335212,22.9941818 C2.22335212,22.9941818 0.429616731,21.8626364 0.00276961867,16.767 L6.42095359,22.9917273 L2.22335212,22.9941818 Z" id="Fill-42"></path>
                            <path d="M0.00219940306,15.5407091 C0.00219940306,15.5407091 -0.187600935,13.0403455 2.92333251,9.21698182 L2.92822007,18.3225273 L0.00219940306,15.5407091 Z" id="Fill-44"></path>
                        </g>
                        <path d="M29.2338983,21.8795294 L32.0433898,21.8795294 L32.0433898,4.49788235 L29.2338983,4.49788235 L29.2338983,4.14211765 L37.3839548,4.14211765 L37.3839548,4.49788235 L34.5744633,4.49788235 L34.5744633,12.8075294 L43.0029379,12.8075294 L43.0029379,4.49788235 L40.1934463,4.49788235 L40.1934463,4.14211765 L48.3435028,4.14211765 L48.3435028,4.49788235 L45.5340113,4.49788235 L45.5340113,21.8795294 L48.3435028,21.8795294 L48.3435028,22.2352941 L40.1934463,22.2352941 L40.1934463,21.8795294 L43.0029379,21.8795294 L43.0029379,13.1632941 L34.5744633,13.1632941 L34.5744633,21.8795294 L37.3839548,21.8795294 L37.3839548,22.2352941 L29.2338983,22.2352941 L29.2338983,21.8795294 Z M50.9663277,21.8795294 L53.7758192,21.8795294 L53.7758192,4.49788235 L50.9663277,4.49788235 L50.9663277,4.14211765 L59.1163842,4.14211765 L59.1163842,4.49788235 L56.3068927,4.49788235 L56.3068927,21.8795294 L59.1163842,21.8795294 L59.1163842,22.2352941 L50.9663277,22.2352941 L50.9663277,21.8795294 Z M65.1656497,21.8795294 L67.9751412,21.8795294 L67.9751412,4.49788235 L66.5071186,4.49788235 C66.1696405,4.49788235 65.7899833,4.52752912 65.3681356,4.58682353 C64.9462879,4.64611794 64.5202281,4.81129276 64.0899435,5.08235294 C63.6596589,5.35341312 63.2462543,5.78117355 62.8497175,6.36564706 C62.4531807,6.95012057 62.1114892,7.75905366 61.8246328,8.79247059 L61.5462147,8.79247059 L61.5462147,4.14211765 L76.9351412,4.14211765 L76.9351412,8.79247059 L76.6567232,8.79247059 C76.3698667,7.75905366 76.0281752,6.95012057 75.6316384,6.36564706 C75.2351016,5.78117355 74.8216971,5.35341312 74.3914124,5.08235294 C73.9611278,4.81129276 73.535068,4.64611794 73.1132203,4.58682353 C72.6913727,4.52752912 72.3117154,4.49788235 71.9742373,4.49788235 L70.5062147,4.49788235 L70.5062147,21.8795294 L73.3157062,21.8795294 L73.3157062,22.2352941 L65.1656497,22.2352941 L65.1656497,21.8795294 Z M94.0103955,22.2352941 L93.6307345,22.2352941 C93.5126171,22.099764 93.3776279,21.9769417 93.2257627,21.8668235 C93.0738975,21.7567053 92.8376664,21.7016471 92.5170621,21.7016471 C92.2639535,21.7016471 91.9897567,21.7482348 91.6944633,21.8414118 C91.3991699,21.9345887 91.0616968,22.04047 90.6820339,22.1590588 C90.302371,22.2776477 89.8763112,22.3835289 89.4038418,22.4767059 C88.9313724,22.5698828 88.4082891,22.6164706 87.8345763,22.6164706 C86.7715201,22.6164706 85.7380088,22.421649 84.7340113,22.032 C83.7300138,21.642351 82.7808708,21.0070632 81.8865537,20.1261176 C81.0597322,19.2959958 80.3679124,18.3134174 79.8110734,17.1783529 C79.2542345,16.0432884 78.9758192,14.7303604 78.9758192,13.2395294 C78.9758192,11.9689348 79.2036135,10.7576528 79.659209,9.60564706 C80.1148045,8.4536413 80.7475666,7.43718088 81.5575141,6.55623529 C82.3674617,5.67528971 83.3208231,4.97647317 84.4176271,4.45976471 C85.5144311,3.94305624 86.7124605,3.68470588 88.0117514,3.68470588 C88.5348425,3.68470588 88.998868,3.7355289 89.4038418,3.83717647 C89.8088156,3.93882404 90.1715992,4.05317584 90.4922034,4.18023529 C90.8128076,4.30729475 91.1080966,4.42164655 91.3780791,4.52329412 C91.6480616,4.62494168 91.9096033,4.67576471 92.1627119,4.67576471 C92.50019,4.67576471 92.7406396,4.62070643 92.8840678,4.51058824 C93.027496,4.40047004 93.1582668,4.27764774 93.2763842,4.14211765 L93.6560452,4.14211765 L93.6560452,9.22447059 L93.3776271,9.22447059 C93.225762,8.58070266 93.0317149,7.9454149 92.7954802,7.31858824 C92.5592455,6.69176157 92.2302093,6.13694359 91.8083616,5.65411765 C91.3865139,5.1712917 90.8507754,4.78164854 90.2011299,4.48517647 C89.5514845,4.1887044 88.7457675,4.04047059 87.7839548,4.04047059 C86.8896377,4.04047059 86.1218864,4.1802339 85.480678,4.45976471 C84.8394695,4.73929552 84.2995126,5.11199767 83.860791,5.57788235 C83.4220694,6.04376704 83.071941,6.58587926 82.8103955,7.20423529 C82.5488499,7.82259133 82.3505845,8.4748201 82.2155932,9.16094118 C82.080602,9.84706225 81.9920153,10.5416435 81.9498305,11.2447059 C81.9076457,11.9477682 81.8865537,12.6127027 81.8865537,13.2395294 C81.8865537,15.0183618 82.0299797,16.4922294 82.3168362,17.6611765 C82.6036926,18.8301235 83.0044419,19.7534084 83.519096,20.4310588 C84.0337502,21.1087093 84.653857,21.5830575 85.379435,21.8541176 C86.105013,22.1251778 86.9065116,22.2607059 87.7839548,22.2607059 C88.9145066,22.2607059 89.8256839,22.0997663 90.5175141,21.7778824 C91.2093443,21.4559984 91.7661749,21.0367085 92.1880226,20.52 C92.6098703,20.0032915 92.9304697,19.4188268 93.1498305,18.7665882 C93.3691913,18.1143497 93.5632383,17.4663562 93.7319774,16.8225882 L94.0103955,16.8225882 L94.0103955,22.2352941 Z M96.6142373,21.8795294 L99.4237288,21.8795294 L99.4237288,4.49788235 L96.6142373,4.49788235 L96.6142373,4.14211765 L104.764294,4.14211765 L104.764294,4.49788235 L101.954802,4.49788235 L101.954802,12.8075294 L110.383277,12.8075294 L110.383277,4.49788235 L107.573785,4.49788235 L107.573785,4.14211765 L115.723842,4.14211765 L115.723842,4.49788235 L112.91435,4.49788235 L112.91435,21.8795294 L115.723842,21.8795294 L115.723842,22.2352941 L107.573785,22.2352941 L107.573785,21.8795294 L110.383277,21.8795294 L110.383277,13.1632941 L101.954802,13.1632941 L101.954802,21.8795294 L104.764294,21.8795294 L104.764294,22.2352941 L96.6142373,22.2352941 L96.6142373,21.8795294 Z M129.018305,6.17505882 C129.018305,6.61553161 129.140639,7.14070283 129.385311,7.75058824 C129.629982,8.36047364 129.904179,8.97034989 130.20791,9.58023529 C130.494766,9.41082268 130.7774,9.23294211 131.055819,9.04658824 C131.334239,8.86023436 131.578907,8.64000127 131.789831,8.38588235 C132.000754,8.13176344 132.173709,7.83529581 132.308701,7.49647059 C132.443692,7.15764536 132.511186,6.7595317 132.511186,6.30211765 C132.511186,5.72611477 132.371979,5.21788456 132.093559,4.77741176 C131.81514,4.33693897 131.338459,4.11670588 130.663503,4.11670588 C130.224781,4.11670588 129.840906,4.31152746 129.511864,4.70117647 C129.182823,5.09082548 129.018305,5.58211468 129.018305,6.17505882 L129.018305,6.17505882 Z M128.107119,10.8508235 C127.229675,11.3082376 126.529419,11.8376441 126.006328,12.4390588 C125.483237,13.0404736 125.221695,13.8324657 125.221695,14.8150588 C125.221695,15.5774156 125.356684,16.3778782 125.626667,17.2164706 C125.896649,18.055063 126.250996,18.8216436 126.689718,19.5162353 C127.128439,20.210827 127.621993,20.782586 128.170395,21.2315294 C128.718797,21.6804728 129.27141,21.9049412 129.828249,21.9049412 C130.435709,21.9049412 131.005195,21.7567074 131.536723,21.4602353 C132.068251,21.1637632 132.570242,20.7952963 133.042712,20.3548235 L128.107119,10.8508235 Z M134.738531,18.3218824 C135.227874,17.4917606 135.561129,16.6701217 135.738305,15.8569412 C135.915481,15.0437606 136.004068,14.2305923 136.004068,13.4174118 C136.004068,12.6042312 135.966102,11.9562377 135.890169,11.4734118 C135.814237,10.9905858 135.683466,10.6221189 135.497853,10.368 C135.31224,10.1138811 135.063354,9.94870626 134.751186,9.87247059 C134.439019,9.79623491 134.046707,9.75811765 133.574237,9.75811765 L133.574237,9.40235294 L138.383277,9.40235294 L138.383277,9.75811765 C137.944555,9.75811765 137.590209,9.81741117 137.320226,9.936 C137.050243,10.0545888 136.843541,10.2409399 136.700113,10.4950588 C136.556685,10.7491777 136.46388,11.0752921 136.421695,11.4734118 C136.37951,11.8715314 136.358418,12.3501149 136.358418,12.9091765 C136.358418,13.6037682 136.324671,14.2221149 136.257175,14.7642353 C136.18968,15.3063557 136.096874,15.8018801 135.978757,16.2508235 C135.86064,16.699767 135.708777,17.1232921 135.523164,17.5214118 C135.337551,17.9195314 135.135067,18.3134098 134.915706,18.7030588 C135.354428,19.5162394 135.742522,20.1557624 136.08,20.6216471 C136.417478,21.0875317 136.805572,21.3204706 137.244294,21.3204706 C137.514276,21.3204706 137.729415,21.2442361 137.889718,21.0917647 C138.05002,20.9392934 138.172354,20.7444718 138.256723,20.5072941 C138.341093,20.2701165 138.40015,20.0117661 138.433898,19.7322353 C138.467646,19.4527045 138.48452,19.1774131 138.48452,18.9063529 L138.83887,18.9063529 C138.83887,19.6178859 138.746065,20.2065859 138.560452,20.6724706 C138.374839,21.1383553 138.142826,21.5152927 137.864407,21.8032941 C137.585987,22.0912956 137.269606,22.2945876 136.915254,22.4131765 C136.560902,22.5317653 136.223429,22.5910588 135.902825,22.5910588 C135.548473,22.5910588 135.244747,22.5529416 134.991638,22.4767059 C134.73853,22.4004702 134.514954,22.2818832 134.320904,22.1209412 C134.126854,21.9599992 133.945462,21.7609424 133.776723,21.5237647 C133.607984,21.286587 133.422374,21.0070604 133.219887,20.6851765 C133.0174,20.8884716 132.764295,21.1002342 132.460565,21.3204706 C132.156835,21.540707 131.815143,21.7439991 131.43548,21.9303529 C131.055817,22.1167068 130.638194,22.2734111 130.182599,22.4004706 C129.727003,22.52753 129.237667,22.5910588 128.714576,22.5910588 C127.65152,22.5910588 126.757216,22.3835315 126.031638,21.9684706 C125.30606,21.5534097 124.719701,21.05365 124.272542,20.4691765 C123.825384,19.884703 123.509003,19.2663562 123.32339,18.6141176 C123.137777,17.9618791 123.044972,17.4070611 123.044972,16.9496471 C123.044972,16.0687015 123.201053,15.2978857 123.51322,14.6371765 C123.825388,13.9764673 124.221918,13.3962378 124.702825,12.8964706 C125.183731,12.3967034 125.711033,11.9604725 126.284746,11.5877647 C126.858459,11.215057 127.415289,10.8762368 127.955254,10.5712941 C127.769641,10.1985864 127.584031,9.76235544 127.398418,9.26258824 C127.212805,8.76282103 127.12,8.15718003 127.12,7.44564706 C127.12,6.86964418 127.221242,6.35717872 127.423729,5.90823529 C127.626216,5.45929187 127.887757,5.07388396 128.208362,4.752 C128.528966,4.43011604 128.895968,4.18447144 129.309379,4.01505882 C129.722789,3.84564621 130.140412,3.76094118 130.56226,3.76094118 C131.203468,3.76094118 131.747644,3.96423326 132.194802,4.37082353 C132.641961,4.7774138 132.865537,5.41270156 132.865537,6.27670588 C132.865537,6.78494372 132.785387,7.22964515 132.625085,7.61082353 C132.464783,7.99200191 132.262299,8.3265868 132.017627,8.61458824 C131.772955,8.90258968 131.498759,9.14823428 131.195028,9.35152941 C130.891298,9.55482455 130.604446,9.73270512 130.334463,9.88517647 L134.738531,18.3218824 Z M147.400226,16.7717647 L147.678644,16.7717647 C147.864257,17.6865928 148.104707,18.4574086 148.4,19.0842353 C148.695293,19.711062 149.020111,20.2277627 149.374463,20.6343529 C149.728815,21.0409432 150.100036,21.3543518 150.488136,21.5745882 C150.876235,21.7948246 151.268548,21.9557642 151.665085,22.0574118 C152.061622,22.1590593 152.441279,22.2183529 152.804068,22.2352941 C153.166857,22.2522354 153.508548,22.2607059 153.829153,22.2607059 C154.72347,22.2607059 155.457474,22.1251778 156.031186,21.8541176 C156.604899,21.5830575 157.060488,21.2400021 157.397966,20.8249412 C157.735444,20.4098803 157.971675,19.9609436 158.106667,19.4781176 C158.241658,18.9952917 158.309153,18.5505903 158.309153,18.144 C158.309153,17.5510559 158.199474,17.0428256 157.980113,16.6192941 C157.760752,16.1957626 157.482337,15.8357662 157.144859,15.5392941 C156.807381,15.242822 156.440379,15.0014127 156.043842,14.8150588 C155.647305,14.628705 155.271866,14.4847064 154.917514,14.3830588 L152.00678,13.4936471 C150.639993,13.0701155 149.606482,12.5110623 148.906215,11.8164706 C148.205948,11.1218789 147.855819,10.1901235 147.855819,9.02117647 C147.855819,8.25881972 147.990808,7.55153267 148.260791,6.89929412 C148.530773,6.24705556 148.910431,5.68376708 149.399774,5.20941176 C149.889117,4.73505645 150.475477,4.3623543 151.15887,4.09129412 C151.842263,3.82023394 152.588923,3.68470588 153.39887,3.68470588 C153.989457,3.68470588 154.483011,3.7355289 154.879548,3.83717647 C155.276085,3.93882404 155.617776,4.05317584 155.904633,4.18023529 C156.191489,4.30729475 156.448812,4.42164655 156.67661,4.52329412 C156.904408,4.62494168 157.136421,4.67576471 157.372655,4.67576471 C157.592016,4.67576471 157.739661,4.64611794 157.815593,4.58682353 C157.891526,4.52752912 157.996986,4.3792953 158.131977,4.14211765 L158.486328,4.14211765 L158.486328,8.74164706 L158.182599,8.74164706 C158.081355,8.13176166 157.9084,7.54306166 157.663729,6.97552941 C157.419057,6.40799716 157.102676,5.90823745 156.714576,5.47623529 C156.326476,5.04423313 155.858232,4.69694249 155.309831,4.43435294 C154.761429,4.17176339 154.124448,4.04047059 153.39887,4.04047059 C152.993896,4.04047059 152.546744,4.09552886 152.057401,4.20564706 C151.568058,4.31576526 151.112469,4.50635159 150.690621,4.77741176 C150.268774,5.04847194 149.918645,5.40423309 149.640226,5.84470588 C149.361807,6.28517867 149.222599,6.84423191 149.222599,7.52188235 C149.222599,8.06400271 149.332278,8.52564515 149.551638,8.90682353 C149.770999,9.28800191 150.053633,9.60988104 150.399548,9.87247059 C150.745463,10.1350601 151.133557,10.3552932 151.563842,10.5331765 C151.994126,10.7110597 152.428623,10.867764 152.867345,11.0032941 L155.929944,11.9689412 C156.250548,12.0705887 156.655515,12.2061168 157.144859,12.3755294 C157.634202,12.544942 158.110883,12.7990571 158.574915,13.1378824 C159.038948,13.4767076 159.435479,13.9256443 159.76452,14.4847059 C160.093561,15.0437675 160.258079,15.7552898 160.258079,16.6192941 C160.258079,17.4155334 160.110435,18.1736435 159.815141,18.8936471 C159.519848,19.6136507 159.093788,20.2489384 158.536949,20.7995294 C157.98011,21.3501204 157.305164,21.7905866 156.51209,22.1209412 C155.719017,22.4512958 154.824713,22.6164706 153.829153,22.6164706 C153.4748,22.6164706 153.162638,22.6122353 152.892655,22.6037647 C152.622673,22.5952941 152.369568,22.5741178 152.133333,22.5402353 C151.897099,22.5063528 151.660867,22.4682355 151.424633,22.4258824 C151.188398,22.3835292 150.926856,22.3200004 150.64,22.2352941 C150.302522,22.1336466 149.939738,22.0150595 149.551638,21.8795294 C149.163539,21.7439993 148.826065,21.6762353 148.539209,21.6762353 C148.2861,21.6762353 148.113145,21.7270583 148.020339,21.8287059 C147.927532,21.9303534 147.847383,22.0658815 147.779887,22.2352941 L147.400226,22.2352941 L147.400226,16.7717647 Z M168.009492,13.1378824 C168.34697,13.2056474 168.701316,13.2564704 169.072542,13.2903529 C169.443768,13.3242355 169.772805,13.3411765 170.059661,13.3411765 C171.30833,13.3411765 172.282784,12.9727096 172.983051,12.2357647 C173.683318,11.4988198 174.033446,10.3849486 174.033446,8.89411765 C174.033446,8.03011333 173.949078,7.31012053 173.780339,6.73411765 C173.6116,6.15811477 173.34584,5.69647232 172.983051,5.34917647 C172.620262,5.00188062 172.1478,4.76047127 171.56565,4.62494118 C170.9835,4.48941109 170.287462,4.42164706 169.477514,4.42164706 C169.15691,4.42164706 168.865839,4.43011756 168.604294,4.44705882 C168.342748,4.46400008 168.144483,4.48094109 168.009492,4.49788235 L168.009492,13.1378824 Z M162.668927,21.8795294 L165.478418,21.8795294 L165.478418,4.49788235 L162.668927,4.49788235 L162.668927,4.14211765 L167.427345,4.14211765 C167.663579,4.14211765 167.89981,4.1378824 168.136045,4.12941176 C168.37228,4.12094113 168.608511,4.10823538 168.844746,4.09129412 C169.08098,4.09129412 169.312993,4.08705887 169.540791,4.07858824 C169.768589,4.0701176 170.000601,4.06588235 170.236836,4.06588235 C171.198649,4.06588235 172.088734,4.18023415 172.907119,4.40894118 C173.725503,4.6376482 174.434197,4.96376259 175.03322,5.38729412 C175.632244,5.81082565 176.100488,6.31905586 176.437966,6.912 C176.775444,7.50494414 176.944181,8.16564342 176.944181,8.89411765 C176.944181,9.6564744 176.750134,10.3341147 176.362034,10.9270588 C175.973934,11.520003 175.459288,12.0197627 174.818079,12.4263529 C174.176871,12.8329432 173.430211,13.1463518 172.578079,13.3665882 C171.725947,13.5868246 170.835862,13.6969412 169.907797,13.6969412 C169.671562,13.6969412 169.367836,13.6757649 168.99661,13.6334118 C168.625384,13.5910586 168.296348,13.5444708 168.009492,13.4936471 L168.009492,21.8795294 L170.818983,21.8795294 L170.818983,22.2352941 L162.668927,22.2352941 L162.668927,21.8795294 Z M184.44565,7.06447059 L181.661469,14.4592941 L187.229831,14.4592941 L184.44565,7.06447059 Z M176.219661,21.8795294 L178.447006,21.8795294 L185.280904,3.68470588 L185.888362,3.68470588 L192.772881,21.8795294 L195.025537,21.8795294 L195.025537,22.2352941 L187.229831,22.2352941 L187.229831,21.8795294 L190.039322,21.8795294 L187.381695,14.8150588 L181.509605,14.8150588 L178.851977,21.8795294 L181.661469,21.8795294 L181.661469,22.2352941 L176.219661,22.2352941 L176.219661,21.8795294 Z M201.811977,12.3501176 L204.140565,12.3501176 C204.613034,12.3501176 205.043313,12.2908241 205.431412,12.1722353 C205.819512,12.0536465 206.152767,11.8461191 206.431186,11.5496471 C206.709606,11.253175 206.924745,10.8508261 207.07661,10.3425882 C207.228475,9.8343504 207.304407,9.19059213 207.304407,8.41129412 C207.304407,7.53034854 207.19051,6.82306149 206.962712,6.28941176 C206.734914,5.75576204 206.439625,5.35341312 206.076836,5.08235294 C205.714047,4.81129276 205.309079,4.63341219 204.861921,4.54870588 C204.414762,4.46399958 203.971829,4.42164706 203.533107,4.42164706 C203.229377,4.42164706 202.921433,4.42588231 202.609266,4.43435294 C202.297098,4.44282357 202.031338,4.46399983 201.811977,4.49788235 L201.811977,12.3501176 Z M196.471412,21.8795294 L199.280904,21.8795294 L199.280904,4.49788235 L196.471412,4.49788235 L196.471412,4.14211765 L201.280452,4.14211765 C201.482939,4.14211765 201.685423,4.1378824 201.88791,4.12941176 C202.090396,4.12094113 202.29288,4.10823538 202.495367,4.09129412 C202.697854,4.09129412 202.900338,4.08705887 203.102825,4.07858824 C203.305312,4.0701176 203.507796,4.06588235 203.710282,4.06588235 C204.705843,4.06588235 205.583273,4.12094063 206.342599,4.23105882 C207.101925,4.34117702 207.810618,4.6588209 208.468701,5.184 C209.059287,5.64141405 209.47691,6.15811477 209.721582,6.73411765 C209.966254,7.31012053 210.088588,7.85223275 210.088588,8.36047059 C210.088588,8.61458951 210.042185,8.94070389 209.949379,9.33882353 C209.856572,9.73694317 209.654088,10.1435273 209.341921,10.5585882 C209.029754,10.9736491 208.578383,11.3548218 207.987797,11.7021176 C207.39721,12.0494135 206.612585,12.2823523 205.633898,12.4009412 L205.633898,12.4517647 C205.903881,12.4856472 206.270883,12.549176 206.734915,12.6423529 C207.198948,12.7355299 207.67141,12.8922342 208.152316,13.1124706 C208.633223,13.332707 209.076156,13.6249394 209.48113,13.9891765 C209.886104,14.3534136 210.172956,14.8235265 210.341695,15.3995294 C210.442938,15.7383546 210.514651,16.1237625 210.556836,16.5557647 C210.599021,16.9877669 210.632768,17.4324683 210.658079,17.8898824 C210.68339,18.3472964 210.7087,18.7877626 210.734011,19.2112941 C210.759322,19.6348256 210.805725,19.9905868 210.87322,20.2785882 C210.974464,20.719061 211.134763,21.1171747 211.354124,21.4729412 C211.573485,21.8287077 211.927832,22.0065882 212.417175,22.0065882 C212.636536,22.0065882 212.86433,21.9642357 213.100565,21.8795294 C213.3368,21.7948231 213.54772,21.659295 213.733333,21.4729412 L213.96113,21.7524706 C213.87676,21.8202356 213.779737,21.8922349 213.670056,21.9684706 C213.560376,22.0447063 213.421168,22.1167055 213.252429,22.1844706 C213.08369,22.2522356 212.876988,22.3072939 212.632316,22.3496471 C212.387645,22.3920002 212.088137,22.4131765 211.733785,22.4131765 C211.058829,22.4131765 210.49778,22.3284714 210.050621,22.1590588 C209.603463,21.9896462 209.244898,21.7397664 208.974915,21.4094118 C208.704933,21.0790572 208.506667,20.672473 208.380113,20.1896471 C208.253559,19.7068211 208.164972,19.1435326 208.11435,18.4997647 L207.937175,16.1872941 C207.86968,15.3402311 207.700943,14.6795318 207.43096,14.2051765 C207.160978,13.7308212 206.844597,13.3835305 206.481808,13.1632941 C206.119019,12.9430577 205.74358,12.8117649 205.35548,12.7694118 C204.96738,12.7270586 204.629907,12.7058824 204.343051,12.7058824 L201.811977,12.7058824 L201.811977,21.8795294 L204.621469,21.8795294 L204.621469,22.2352941 L196.471412,22.2352941 L196.471412,21.8795294 Z M220.481808,12.3501176 L222.810395,12.3501176 C223.282865,12.3501176 223.713143,12.2908241 224.101243,12.1722353 C224.489343,12.0536465 224.822597,11.8461191 225.101017,11.5496471 C225.379436,11.253175 225.594576,10.8508261 225.746441,10.3425882 C225.898306,9.8343504 225.974237,9.19059213 225.974237,8.41129412 C225.974237,7.53034854 225.86034,6.82306149 225.632542,6.28941176 C225.404745,5.75576204 225.109456,5.35341312 224.746667,5.08235294 C224.383878,4.81129276 223.97891,4.63341219 223.531751,4.54870588 C223.084593,4.46399958 222.641659,4.42164706 222.202938,4.42164706 C221.899208,4.42164706 221.591263,4.42588231 221.279096,4.43435294 C220.966929,4.44282357 220.701169,4.46399983 220.481808,4.49788235 L220.481808,12.3501176 Z M215.141243,21.8795294 L217.950734,21.8795294 L217.950734,4.49788235 L215.141243,4.49788235 L215.141243,4.14211765 L219.950282,4.14211765 C220.152769,4.14211765 220.355253,4.1378824 220.55774,4.12941176 C220.760227,4.12094113 220.962711,4.10823538 221.165198,4.09129412 C221.367685,4.09129412 221.570168,4.08705887 221.772655,4.07858824 C221.975142,4.0701176 222.177626,4.06588235 222.380113,4.06588235 C223.375674,4.06588235 224.253104,4.12094063 225.012429,4.23105882 C225.771755,4.34117702 226.480449,4.6588209 227.138531,5.184 C227.729118,5.64141405 228.146741,6.15811477 228.391412,6.73411765 C228.636084,7.31012053 228.758418,7.85223275 228.758418,8.36047059 C228.758418,8.61458951 228.712016,8.94070389 228.619209,9.33882353 C228.526403,9.73694317 228.323919,10.1435273 228.011751,10.5585882 C227.699584,10.9736491 227.248214,11.3548218 226.657627,11.7021176 C226.06704,12.0494135 225.282415,12.2823523 224.303729,12.4009412 L224.303729,12.4517647 C224.573711,12.4856472 224.940713,12.549176 225.404746,12.6423529 C225.868778,12.7355299 226.341241,12.8922342 226.822147,13.1124706 C227.303053,13.332707 227.745987,13.6249394 228.15096,13.9891765 C228.555934,14.3534136 228.842786,14.8235265 229.011525,15.3995294 C229.112769,15.7383546 229.184482,16.1237625 229.226667,16.5557647 C229.268851,16.9877669 229.302599,17.4324683 229.32791,17.8898824 C229.35322,18.3472964 229.378531,18.7877626 229.403842,19.2112941 C229.429153,19.6348256 229.475555,19.9905868 229.543051,20.2785882 C229.644294,20.719061 229.804594,21.1171747 230.023955,21.4729412 C230.243316,21.8287077 230.597662,22.0065882 231.087006,22.0065882 C231.306366,22.0065882 231.534161,21.9642357 231.770395,21.8795294 C232.00663,21.7948231 232.217551,21.659295 232.403164,21.4729412 L232.63096,21.7524706 C232.546591,21.8202356 232.449567,21.8922349 232.339887,21.9684706 C232.230207,22.0447063 232.090999,22.1167055 231.92226,22.1844706 C231.753521,22.2522356 231.546819,22.3072939 231.302147,22.3496471 C231.057475,22.3920002 230.757968,22.4131765 230.403616,22.4131765 C229.72866,22.4131765 229.167611,22.3284714 228.720452,22.1590588 C228.273293,21.9896462 227.914728,21.7397664 227.644746,21.4094118 C227.374763,21.0790572 227.176498,20.672473 227.049944,20.1896471 C226.923389,19.7068211 226.834803,19.1435326 226.784181,18.4997647 L226.607006,16.1872941 C226.53951,15.3402311 226.370773,14.6795318 226.100791,14.2051765 C225.830808,13.7308212 225.514427,13.3835305 225.151638,13.1632941 C224.788849,12.9430577 224.413411,12.8117649 224.025311,12.7694118 C223.637211,12.7270586 223.299738,12.7058824 223.012881,12.7058824 L220.481808,12.7058824 L220.481808,21.8795294 L223.291299,21.8795294 L223.291299,22.2352941 L215.141243,22.2352941 L215.141243,21.8795294 Z M236.497175,13.1632941 C236.497175,14.6880076 236.598417,16.0178767 236.800904,17.1529412 C237.003391,18.2880057 237.340864,19.2367021 237.813333,19.9990588 C238.285803,20.7614156 238.893254,21.3289393 239.635706,21.7016471 C240.378158,22.0743548 241.297772,22.2607059 242.394576,22.2607059 C243.474506,22.2607059 244.389902,22.0743548 245.140791,21.7016471 C245.89168,21.3289393 246.50335,20.7614156 246.975819,19.9990588 C247.448289,19.2367021 247.785762,18.2880057 247.988249,17.1529412 C248.190735,16.0178767 248.291977,14.6880076 248.291977,13.1632941 C248.291977,11.9943471 248.216046,10.8635349 248.064181,9.77082353 C247.912316,8.67811218 247.621245,7.70400428 247.19096,6.84847059 C246.760676,5.9929369 246.161661,5.31106136 245.393898,4.80282353 C244.626136,4.29458569 243.626372,4.04047059 242.394576,4.04047059 C241.162781,4.04047059 240.163017,4.29458569 239.395254,4.80282353 C238.627491,5.31106136 238.028477,5.9929369 237.598192,6.84847059 C237.167907,7.70400428 236.876837,8.67811218 236.724972,9.77082353 C236.573107,10.8635349 236.497175,11.9943471 236.497175,13.1632941 L236.497175,13.1632941 Z M233.586441,13.1632941 C233.586441,11.8079932 233.852201,10.5543587 234.383729,9.40235294 C234.915257,8.25034718 235.59864,7.25082776 236.433898,6.40376471 C237.269157,5.55670165 238.209863,4.89176712 239.256045,4.40894118 C240.302227,3.92611523 241.348394,3.68470588 242.394576,3.68470588 C243.508254,3.68470588 244.592386,3.92611523 245.647006,4.40894118 C246.701625,4.89176712 247.642331,5.55670165 248.469153,6.40376471 C249.295974,7.25082776 249.958265,8.25034718 250.456045,9.40235294 C250.953825,10.5543587 251.202712,11.8079932 251.202712,13.1632941 C251.202712,14.3491824 250.974918,15.5096414 250.519322,16.6447059 C250.063727,17.7797704 249.439401,18.7877603 248.646328,19.6687059 C247.853254,20.5496515 246.920985,21.2611738 245.849492,21.8032941 C244.777998,22.3454145 243.626372,22.6164706 242.394576,22.6164706 C241.129033,22.6164706 239.956314,22.353885 238.876384,21.8287059 C237.796454,21.3035268 236.864185,20.6047102 236.079548,19.7322353 C235.294911,18.8597603 234.683241,17.8517704 234.24452,16.7082353 C233.805798,15.5647002 233.586441,14.3830649 233.586441,13.1632941 L233.586441,13.1632941 Z M251.898757,4.14211765 L259.517288,4.14211765 L259.517288,4.49788235 L256.884972,4.49788235 L262.098983,19.2367059 L262.149605,19.2367059 L265.515932,9.85976471 L263.592316,4.49788235 L261.466215,4.49788235 L261.466215,4.14211765 L269.059435,4.14211765 L269.059435,4.49788235 L266.300565,4.49788235 L271.514576,19.2367059 L271.565198,19.2367059 L276.880452,4.49788235 L274.172203,4.49788235 L274.172203,4.14211765 L279.588701,4.14211765 L279.588701,4.49788235 L277.310734,4.49788235 L270.755254,22.6164706 L270.122486,22.6164706 L265.76904,10.4188235 L265.718418,10.4188235 L261.31435,22.6164706 L260.63096,22.6164706 L254.176723,4.49788235 L251.898757,4.49788235 L251.898757,4.14211765 Z" id="HITCH-&amp;-SPARROW" fill="#777777"></path>
                    </g>
                </g>
            </g>
        </g>
    </g>
</svg>