<?xml version="1.0" standalone="no"?>
<!DOCTYPE svg PUBLIC "-//W3C//DTD SVG 20010904//EN"
 "http://www.w3.org/TR/2001/REC-SVG-20010904/DTD/svg10.dtd">
<svg version="1.0" xmlns="http://www.w3.org/2000/svg"
 width="512.000000pt" height="512.000000pt" viewBox="0 0 512.000000 512.000000"
 preserveAspectRatio="xMidYMid meet">
<metadata>
Created by potrace 1.11, written by Peter Selinger 2001-2013
</metadata>
<g transform="translate(0.000000,512.000000) scale(0.100000,-0.100000)"
fill="#000000" stroke="none">
<path d="M207 4222 c-16 -10 -32 -32 -38 -52 -6 -23 -9 -487 -7 -1358 l3
-1324 33 -29 32 -29 808 0 808 0 -2 -27 c-4 -50 -15 -148 -19 -168 -2 -11 -7
-54 -10 -96 -3 -41 -8 -84 -10 -95 -2 -10 -4 -29 -4 -41 -1 -16 -9 -23 -33
-28 -152 -30 -199 -50 -165 -72 7 -4 301 -8 655 -9 507 0 645 2 653 12 13 16
4 50 -14 51 -6 1 -25 3 -42 6 -16 2 -54 8 -82 12 -29 4 -53 10 -54 14 0 3 -2
13 -3 21 -2 8 -6 44 -10 80 -4 36 -11 103 -16 150 -5 47 -12 109 -15 138 l-5
52 204 0 203 0 -1 622 c-1 343 2 642 6 665 9 54 41 97 87 120 33 16 86 17 606
19 314 1 572 2 575 3 3 0 5 295 5 654 0 612 -1 655 -18 680 -10 16 -29 32 -43
37 -16 6 -784 10 -2042 10 -1891 -1 -2019 -2 -2045 -18z"/>
<path d="M3179 2751 l-26 -26 0 -865 c0 -476 3 -875 8 -887 17 -45 25 -46 558
-46 l505 -1 -1 523 -1 522 25 50 c18 35 38 57 70 76 42 24 56 27 157 28 l111
1 3 289 c2 297 -2 335 -36 351 -10 4 -316 8 -682 9 l-665 1 -26 -25z"/>
<path d="M4394 2010 c-12 -5 -31 -21 -43 -36 -21 -26 -21 -31 -21 -531 0 -551
0 -546 57 -572 32 -15 469 -15 510 0 65 22 64 18 61 581 l-3 508 -28 27 -27
28 -243 1 c-133 1 -252 -2 -263 -6z"/>
</g>
</svg>
