<?xml version="1.0" encoding="UTF-8" standalone="no"?>
<svg width="50px" height="50px" viewBox="0 0 50 50" version="1.1" xmlns="http://www.w3.org/2000/svg" xmlns:xlink="http://www.w3.org/1999/xlink" xmlns:sketch="http://www.bohemiancoding.com/sketch/ns">
    <!-- Generator: Sketch 3.4.4 (17249) - http://www.bohemiancoding.com/sketch -->
    <title>social-yelp</title>
    <desc>Created with Sketch.</desc>
    <defs></defs>
    <g id="Engagements" stroke="none" stroke-width="1" fill="none" fill-rule="evenodd" sketch:type="MSPage">
        <g id="02-Engagements-Page,-Desktop" sketch:type="MSArtboardGroup" transform="translate(-361.000000, -1218.000000)">
            <g id="Footer" sketch:type="MSLayerGroup" transform="translate(0.000000, 1164.000000)">
                <g id="Social-Icons" transform="translate(130.000000, 55.000000)" sketch:type="MSShapeGroup">
                    <g id="social-yelp" transform="translate(232.000000, 0.000000)">
                        <circle id="Social" stroke="#444444" stroke-width="1.5" fill="#FFFFFF" cx="24" cy="24" r="24"></circle>
                        <path d="M13.5601157,24.5206513 C13.0910126,23.7913042 12.8932676,21.4968707 13.0563711,19.9737811 C13.1141069,19.4712176 13.2079275,19.051248 13.3436065,18.8020661 C13.5312478,18.4562912 13.8459077,18.2505061 14.2053128,18.237907 C14.4362558,18.2267079 14.5791519,18.2645051 18.9122208,19.6154071 C18.9122208,19.6154071 20.8377085,20.2117639 20.8463689,20.2159636 C21.3270191,20.3349549 21.6503393,20.7633239 21.6806506,21.3092843 C21.7124053,21.8706436 21.4136227,22.3648077 20.9214253,22.5439947 C20.9214253,22.5439947 19.5631915,23.0801558 19.5603047,23.0801558 C14.9039155,24.9434207 14.6946234,25.0162154 14.4593502,25.0190152 C14.1028318,25.0330142 13.7838417,24.8580269 13.5601157,24.5206513 Z M23.978534,10.6406581 C24.0535904,10.8534426 24.0636942,10.9976322 24.0766848,15.4129119 C24.0766848,15.4129119 24.0867885,17.3643704 24.0882319,17.3825691 C24.1199866,17.8613344 23.8009965,18.2967028 23.2784878,18.4912887 C22.7401019,18.6914741 22.1613008,18.5682831 21.8350938,18.1749116 C21.8350938,18.1749116 20.8838971,17.0815909 20.8824537,17.0815909 C17.6203831,13.3648605 17.4832607,13.192673 17.403874,12.9728889 C17.356242,12.8440983 17.3360345,12.7055083 17.3519118,12.5669184 C17.3721194,12.3695327 17.4644966,12.1749468 17.616053,11.99296 C18.3723914,11.1222232 22.0010841,9.82731707 23.1601295,10.0191032 C23.5613931,10.0918979 23.8544021,10.3116819 23.978534,10.6406581 Z M31.3384003,12.1777466 C32.4324929,12.6005159 34.8184233,15.5445024 34.985857,16.6784202 C35.0450362,17.0717916 34.9165741,17.4119669 34.6365557,17.6289512 C34.4532446,17.7633415 34.3132354,17.8151377 29.9830532,19.1940377 C29.9830532,19.1940377 28.0835467,19.8029935 28.059009,19.8141927 C27.6000096,19.9877801 27.0746142,19.8267918 26.7209827,19.4054224 C26.3543606,18.9728537 26.2995116,18.4002953 26.5925206,17.9677266 L27.3575194,16.7610142 C29.9282043,12.7125078 30.1245059,12.4255286 30.3092603,12.2855388 C30.5950523,12.0657547 30.9587876,12.0293574 31.3384003,12.1777466 Z M29.0996961,22.6027904 C34.0216698,23.7591066 34.2121978,23.8207021 34.4056126,23.9438932 C34.7043952,24.1384791 34.8530648,24.4646554 34.8270837,24.8608267 C34.8270837,24.8734258 34.8299705,24.8874247 34.8270837,24.9014237 C34.7015084,26.0731387 32.5840493,29.1221176 31.5404754,29.6176816 C31.1709665,29.7898692 30.8014577,29.77867 30.4940147,29.5784845 C30.3034867,29.4580932 30.1649209,29.2761064 27.5292833,25.78056 C27.5292833,25.78056 26.3384832,24.208474 26.3240493,24.1930751 C26.0108328,23.8235019 26.0050592,23.2929404 26.3125021,22.8379734 C26.6300488,22.3676075 27.1669914,22.1366243 27.6591888,22.2696146 C27.6591888,22.2696146 27.6389813,22.2360171 27.6346511,22.2290176 C27.8771413,22.3172112 28.3101595,22.4208036 29.0996961,22.6027904 Z M24.1589582,26.5435046 C24.073798,28.4347674 23.4863366,36.8593564 23.4184971,37.2499281 C23.3189029,37.6041024 23.0345542,37.8560841 22.6260737,37.9554769 C21.3688775,38.257855 16.5667055,36.9531496 15.6775747,36.0628142 C15.3917827,35.7730352 15.2849716,35.417461 15.3715752,35.1010839 C15.5115844,34.8225041 21.4626981,25.7427627 21.4626981,25.7427627 C22.3417251,24.359663 23.0590919,24.5738475 23.2943652,24.6466422 C23.5267516,24.7166371 24.2397883,24.9308216 24.1589582,26.5435046 Z" id="Yelp-Icon" fill="#444444" transform="translate(24.000000, 24.000000) scale(-1, 1) rotate(-180.000000) translate(-24.000000, -24.000000) "></path>
                    </g>
                </g>
            </g>
        </g>
    </g>
</svg>