<?xml version="1.0" encoding="UTF-8" standalone="no"?>
<svg width="42px" height="42px" viewBox="0 0 42 42" version="1.1" xmlns="http://www.w3.org/2000/svg" xmlns:xlink="http://www.w3.org/1999/xlink" xmlns:sketch="http://www.bohemiancoding.com/sketch/ns">
    <!-- Generator: Sketch 3.4.4 (17249) - http://www.bohemiancoding.com/sketch -->
    <title>social-facebook-small</title>
    <desc>Created with Sketch.</desc>
    <defs></defs>
    <g id="About-H&amp;S" stroke="none" stroke-width="1" fill="none" fill-rule="evenodd" sketch:type="MSPage">
        <g id="04-About-Page,-Desktop" sketch:type="MSArtboardGroup" transform="translate(-349.000000, -788.000000)">
            <g id="Content" sketch:type="MSLayerGroup" transform="translate(0.000000, 373.000000)">
                <g id="Who-We-Are" transform="translate(240.000000, 40.000000)" sketch:type="MSShapeGroup">
                    <g id="Anthony-Barlich" transform="translate(0.000000, 87.000000)">
                        <g id="Social-Icons" transform="translate(54.000000, 289.000000)">
                            <g id="social-facebook-small" transform="translate(56.000000, 0.000000)">
                                <circle id="Social" stroke="#444444" stroke-width="1.5" fill="#FFFFFF" cx="20" cy="20" r="20"></circle>
                                <path d="M23.6612323,16.9286768 L21.7210107,16.9286768 L21.7210107,14.953144 C21.9362693,13.0860159 24.9887077,13.4404707 24.9887077,13.4404707 L24.9894135,13.3128099 L24.9887077,10.2311214 C24.8807255,10.2054466 18.9134731,8.77407681 17.7284918,13.3634463 C17.5329946,13.9710831 17.5456984,16.5984704 17.5478157,16.9286768 L15,16.9286768 L15,20.4425577 L17.7059073,20.4425577 L17.7059073,30 L21.6461994,30 L21.6461994,20.4425577 L24.6605265,20.4425577 L25,16.9286768 L24.6612323,16.9286768" id="Fill-16" fill="#444444"></path>
                            </g>
                        </g>
                    </g>
                </g>
            </g>
        </g>
    </g>
</svg>