<?xml version="1.0" encoding="UTF-8" standalone="no"?>
<svg width="50px" height="50px" viewBox="0 0 50 50" version="1.1" xmlns="http://www.w3.org/2000/svg" xmlns:xlink="http://www.w3.org/1999/xlink" xmlns:sketch="http://www.bohemiancoding.com/sketch/ns">
    <!-- Generator: Sketch 3.4.4 (17249) - http://www.bohemiancoding.com/sketch -->
    <title>social-pinterest</title>
    <desc>Created with Sketch.</desc>
    <defs></defs>
    <g id="Engagements" stroke="none" stroke-width="1" fill="none" fill-rule="evenodd" sketch:type="MSPage">
        <g id="02-Engagements-Page,-Desktop" sketch:type="MSArtboardGroup" transform="translate(-303.000000, -1218.000000)">
            <g id="Footer" sketch:type="MSLayerGroup" transform="translate(0.000000, 1164.000000)">
                <g id="Social-Icons" transform="translate(130.000000, 55.000000)" sketch:type="MSShapeGroup">
                    <g id="social-pinterest" transform="translate(174.000000, 0.000000)">
                        <circle id="Social" stroke="#444444" stroke-width="1.5" fill="#FFFFFF" cx="24" cy="24" r="24"></circle>
                        <path d="M22.2212817,27.8356247 C21.5462522,31.3399478 20.7217637,34.6997007 18.279504,36.4545455 C17.525639,31.1579747 19.3864865,27.1800989 20.2503928,22.9569904 C18.7771534,20.5012485 20.4276086,15.5593545 23.5352076,16.7773868 C27.358732,18.274965 20.2241143,25.9067753 25.0135385,26.8598979 C30.0145047,27.8549767 32.0560171,18.2686227 28.9553162,15.1511754 C24.4746646,10.6496595 15.9127949,15.0485614 16.9655781,21.4934001 C17.2216294,23.069199 18.8658434,23.5471425 17.622541,25.7215498 C14.7547335,25.0920434 13.8990392,22.8527502 14.0092448,19.8671886 C14.1864605,14.9802606 18.4437447,11.5588743 22.7140039,11.0856467 C28.1142393,10.4870383 33.1825443,13.0483214 33.8825383,18.078356 C34.6705654,23.7554602 31.4448773,29.9040031 25.6705014,29.4618362 C24.1051229,29.3414965 23.44816,28.5737621 22.2212817,27.8356247" id="Pinterest" fill="#444444"></path>
                    </g>
                </g>
            </g>
        </g>
    </g>
</svg>