<?xml version="1.0" encoding="UTF-8" standalone="no"?>
<svg width="42px" height="42px" viewBox="0 0 42 42" version="1.1" xmlns="http://www.w3.org/2000/svg" xmlns:xlink="http://www.w3.org/1999/xlink" xmlns:sketch="http://www.bohemiancoding.com/sketch/ns">
    <!-- Generator: Sketch 3.4.4 (17249) - http://www.bohemiancoding.com/sketch -->
    <title>social-website-small</title>
    <desc>Created with Sketch.</desc>
    <defs></defs>
    <g id="About-H&amp;S" stroke="none" stroke-width="1" fill="none" fill-rule="evenodd" sketch:type="MSPage">
        <g id="04-About-Page,-Desktop" sketch:type="MSArtboardGroup" transform="translate(-405.000000, -788.000000)">
            <g id="Content" sketch:type="MSLayerGroup" transform="translate(0.000000, 373.000000)">
                <g id="Who-We-Are" transform="translate(240.000000, 40.000000)" sketch:type="MSShapeGroup">
                    <g id="Anthony-Barlich" transform="translate(0.000000, 87.000000)">
                        <g id="Social-Icons" transform="translate(54.000000, 289.000000)">
                            <g id="social-website-small" transform="translate(112.000000, 0.000000)">
                                <circle id="Social" stroke="#444444" stroke-width="1.5" fill="#FFFFFF" cx="20" cy="20" r="20"></circle>
                                <g id="Computer" transform="translate(9.000000, 11.000000)" fill="#444444">
                                    <path d="M19.8141132,14.7157447 L2.17592453,14.7157447 C0.590264151,14.7157447 0,14.1110638 0,12.4851064 L0,2.23106383 C0,0.605106383 0.590264151,0 2.17592453,0 L19.8157736,0 C21.401434,0 21.9916981,0.605106383 21.9916981,2.23106383 L21.9916981,12.4868085 C21.9900377,14.1110638 21.401434,14.7157447 19.8141132,14.7157447 L19.8141132,14.7157447 Z M2.17592453,1.43617021 C1.60516981,1.43617021 1.49475472,1.51446809 1.48354717,1.52255319 C1.47690566,1.53276596 1.4009434,1.64595745 1.4009434,2.23106383 L1.4009434,12.4868085 C1.4009434,13.0719149 1.47690566,13.1868085 1.48520755,13.1982979 C1.49309434,13.2051064 1.60516981,13.2829787 2.17592453,13.2829787 L19.8157736,13.2829787 C20.3865283,13.2829787 20.4986038,13.2051064 20.5098113,13.1965957 C20.5164528,13.1868085 20.5924151,13.073617 20.5924151,12.4885106 L20.5924151,2.23106383 C20.5924151,1.64595745 20.5164528,1.53106383 20.5081509,1.5212766 C20.4998491,1.51446809 20.3881887,1.43617021 19.817434,1.43617021 L2.17592453,1.43617021 Z" id="Fill-19"></path>
                                    <path d="M14.8998113,19.6693617 L7.0989434,19.6693617 C6.31233962,19.6693617 5.98150943,19.3170213 5.84203774,19.0208511 C5.53071698,18.3625532 6.02218868,17.672766 6.12430189,17.5417021 C6.15833962,17.4982979 6.19569811,17.4582979 6.23928302,17.4251064 L7.45384906,16.4412766 C7.69211321,16.1902128 7.71162264,16.047234 7.76184906,15.6680851 C7.77637736,15.553617 7.79256604,15.4340426 7.8170566,15.3042553 L7.93369811,14.2468085 C7.97769811,13.8531915 8.31973585,13.5706383 8.71033962,13.6153191 C9.09471698,13.6604255 9.37033962,14.0161702 9.32675472,14.4114894 L9.2034717,15.5170213 C9.17732075,15.6714894 9.16445283,15.7680851 9.15324528,15.8608511 C9.09139623,16.3297872 9.02,16.8617021 8.38615094,17.5097872 L7.49909434,18.2331915 L14.5009057,18.2331915 L13.6786038,17.5646809 C12.9862264,16.86 12.9148302,16.3297872 12.8533962,15.8608511 C12.8421887,15.7680851 12.8289057,15.6697872 12.8093962,15.5651064 L12.6832075,14.406383 C12.6408679,14.012766 12.9181509,13.6570213 13.3025283,13.6153191 C13.6997736,13.5655319 14.0339245,13.8561702 14.0741887,14.2502128 L14.1924906,15.3557447 C14.2086792,15.4340426 14.225283,15.553617 14.2398113,15.666383 C14.2900377,16.0455319 14.3095472,16.1885106 14.6075849,16.4944681 L15.760717,17.4234043 C15.8026415,17.4565957 15.8416604,17.4965957 15.8756981,17.54 C15.9761509,17.6710638 16.469283,18.3608511 16.1596226,19.0191489 C16.0184906,19.3170213 15.6876604,19.6693617 14.8998113,19.6693617 L14.8998113,19.6693617 Z" id="Fill-21"></path>
                                    <rect id="Rectangle-9-Copy" x="1" y="0.400024414" width="20" height="11"></rect>
                                </g>
                            </g>
                        </g>
                    </g>
                </g>
            </g>
        </g>
    </g>
</svg>