<?xml version="1.0" encoding="UTF-8" standalone="no"?>
<svg width="50px" height="50px" viewBox="0 0 50 50" version="1.1" xmlns="http://www.w3.org/2000/svg" xmlns:xlink="http://www.w3.org/1999/xlink" xmlns:sketch="http://www.bohemiancoding.com/sketch/ns">
    <!-- Generator: Sketch 3.4.4 (17249) - http://www.bohemiancoding.com/sketch -->
    <title>social-twitter</title>
    <desc>Created with Sketch.</desc>
    <defs></defs>
    <g id="Engagements" stroke="none" stroke-width="1" fill="none" fill-rule="evenodd" sketch:type="MSPage">
        <g id="02-Engagements-Page,-Desktop" sketch:type="MSArtboardGroup" transform="translate(-245.000000, -1218.000000)">
            <g id="Footer" sketch:type="MSLayerGroup" transform="translate(0.000000, 1164.000000)">
                <g id="Social-Icons" transform="translate(130.000000, 55.000000)" sketch:type="MSShapeGroup">
                    <g id="social-twitter" transform="translate(116.000000, 0.000000)">
                        <circle id="Social" stroke="#444444" stroke-width="1.5" fill="#FFFFFF" cx="24" cy="24" r="24"></circle>
                        <path d="M34.210022,17.9988889 C35.18,17.4066667 34.9261818,16.4677778 35.2763636,15.35 C34.3687273,15.8988889 33.3629091,16.2966667 32.2916364,16.5122222 C31.4341818,15.5811111 30.2134545,15 28.8618182,15 C26.2654545,15 24.1610909,17.1433333 24.1610909,19.7866667 C24.1610909,20.1622222 24.2025455,20.5277778 24.2832727,20.8777778 C20.3767273,20.6788889 16.9130909,18.7722222 14.5949091,15.8766667 C14.1901818,16.5833333 13.9589091,17.4055556 13.9589091,18.2833333 C13.9589091,19.9433333 14.7890909,21.4088889 16.0501818,22.2677778 C15.2789091,22.2422222 14.5545455,22.0277778 13.9207273,21.6688889 L13.9207273,21.7288889 C13.9207273,24.0488889 15.5407273,25.9833333 17.6909091,26.4233333 C17.296,26.5322222 16.8814545,26.5911111 16.4527273,26.5911111 C16.1494545,26.5911111 15.8549091,26.5611111 15.568,26.5055556 C16.1658182,28.4066667 17.9014545,29.7911111 19.9589091,29.83 C18.3498182,31.1133333 16.324,31.8788889 14.1214545,31.8788889 C13.7418182,31.8788889 13.3676364,31.8566667 13,31.8122222 C15.0803636,33.17 17.5512727,33.9622222 20.2054545,33.9622222 C28.8498182,33.9622222 33.5778182,26.6677778 33.5778182,20.3422222 C33.5778182,20.1344444 33.5734545,19.9277778 33.5647273,19.7233333 C34.4821818,19.0477778 35.2796364,18.2044444 35.9090909,17.2444444 C35.0669091,17.6255556 35.1603636,17.8833333 34.210022,17.9988889 Z" id="Twitter" fill="#444444"></path>
                    </g>
                </g>
            </g>
        </g>
    </g>
</svg>