<?xml version="1.0" encoding="UTF-8" standalone="no"?>
<svg width="42px" height="42px" viewBox="0 0 42 42" version="1.1" xmlns="http://www.w3.org/2000/svg" xmlns:xlink="http://www.w3.org/1999/xlink" xmlns:sketch="http://www.bohemiancoding.com/sketch/ns">
    <!-- Generator: Sketch 3.4.4 (17249) - http://www.bohemiancoding.com/sketch -->
    <title>social-instagram-small</title>
    <desc>Created with Sketch.</desc>
    <defs></defs>
    <g id="About-H&amp;S" stroke="none" stroke-width="1" fill="none" fill-rule="evenodd" sketch:type="MSPage">
        <g id="04-About-Page,-Desktop" sketch:type="MSArtboardGroup" transform="translate(-293.000000, -788.000000)">
            <g id="Content" sketch:type="MSLayerGroup" transform="translate(0.000000, 373.000000)">
                <g id="Who-We-Are" transform="translate(240.000000, 40.000000)" sketch:type="MSShapeGroup">
                    <g id="Anthony-Barlich" transform="translate(0.000000, 87.000000)">
                        <g id="Social-Icons" transform="translate(54.000000, 289.000000)">
                            <g id="social-instagram-small">
                                <circle id="Social" stroke="#444444" stroke-width="1.5" fill="#FFFFFF" cx="20" cy="20" r="20"></circle>
                                <path d="M26.6893684,11 C27.9607368,11 29,12.0392632 29,13.3106316 L29,26.6893684 C29,27.9607368 27.9607368,29 26.6893684,29 L13.3106316,29 C12.0392632,29 11,27.9607368 11,26.6893684 L11,13.3106316 C11,12.0392632 12.0392632,11 13.3106316,11 L26.6893684,11 Z M24.1125263,12.9998947 C23.6663158,12.9998947 23.3025263,13.3646316 23.3025263,13.8098947 L23.3025263,15.7501053 C23.3025263,16.1953684 23.6663158,16.5601053 24.1125263,16.5601053 L26.1465263,16.5601053 C26.5927368,16.5601053 26.9574737,16.1953684 26.9574737,15.7501053 L26.9574737,13.8098947 C26.9574737,13.3646316 26.5927368,12.9998947 26.1465263,12.9998947 L24.1125263,12.9998947 L24.1125263,12.9998947 Z M26.966,18.6121053 L25.3810526,18.6121053 C25.5307368,19.1018947 25.6122105,19.6201053 25.6122105,20.1563158 C25.6122105,23.1509474 23.1073684,25.5771579 20.0170526,25.5771579 C16.9267368,25.5771579 14.4218947,23.1509474 14.4218947,20.1563158 C14.4218947,19.6201053 14.5033684,19.1018947 14.6530526,18.6121053 L12.9998947,18.6121053 L12.9998947,26.2156842 C12.9998947,26.6088421 13.322,26.9309474 13.7151579,26.9309474 L26.2497895,26.9309474 C26.6438947,26.9309474 26.966,26.6088421 26.966,26.2156842 L26.966,18.6121053 L26.966,18.6121053 Z M20.0170526,16.4577895 C18.0209474,16.4577895 16.4018947,18.0266316 16.4018947,19.9611579 C16.4018947,21.8956842 18.0209474,23.4635789 20.0170526,23.4635789 C22.0141053,23.4635789 23.6322105,21.8956842 23.6322105,19.9611579 C23.6322105,18.0266316 22.0141053,16.4577895 20.0170526,16.4577895 L20.0170526,16.4577895 Z" id="Instagram-lcon" fill="#444444"></path>
                            </g>
                        </g>
                    </g>
                </g>
            </g>
        </g>
    </g>
</svg>