<?xml version="1.0" encoding="UTF-8" standalone="no"?>
<svg width="50px" height="50px" viewBox="0 0 50 50" version="1.1" xmlns="http://www.w3.org/2000/svg" xmlns:xlink="http://www.w3.org/1999/xlink">
    <!-- Generator: Sketch 3.8.3 (29802) - http://www.bohemiancoding.com/sketch -->
    <title>social-instagram</title>
    <desc>Created with Sketch.</desc>
    <defs></defs>
    <g id="Symbols" stroke="none" stroke-width="1" fill="none" fill-rule="evenodd">
        <g id="Footer" transform="translate(-129.000000, -54.000000)">
            <g id="Social-Icons" transform="translate(130.000000, 55.000000)">
                <g id="social-instagram">
                    <circle id="Social" stroke="#444444" stroke-width="1.5" fill="#FFFFFF" cx="24" cy="24" r="24"></circle>
                    <path d="M24.0000258,11 C20.469412,11 20.0267049,11.014965 18.6401166,11.078231 C17.2564182,11.1413422 16.3114018,11.3611219 15.484506,11.682509 C14.6296411,12.0146812 13.9046624,12.4591945 13.1819026,13.1819026 C12.4591945,13.9046624 12.0146812,14.6296411 11.682509,15.484506 C11.3611219,16.3114018 11.1413422,17.2564182 11.078231,18.6401166 C11.014965,20.0267049 11,20.469412 11,24.0000258 C11,27.530588 11.014965,27.9732951 11.078231,29.3598834 C11.1413422,30.7435818 11.3611219,31.6885982 11.682509,32.515494 C12.0146812,33.3703589 12.4591945,34.0953376 13.1819026,34.8180974 C13.9046624,35.5408055 14.6296411,35.9853188 15.484506,36.3175426 C16.3114018,36.6388781 17.2564182,36.8586578 18.6401166,36.921769 C20.0267049,36.985035 20.469412,37 24.0000258,37 C27.530588,37 27.9732951,36.985035 29.3598834,36.921769 C30.7435818,36.8586578 31.6885982,36.6388781 32.515494,36.3175426 C33.3703589,35.9853188 34.0953376,35.5408055 34.8180974,34.8180974 C35.5408055,34.0953376 35.9853188,33.3703589 36.3175426,32.515494 C36.6388781,31.6885982 36.8586578,30.7435818 36.921769,29.3598834 C36.985035,27.9732951 37,27.530588 37,24.0000258 C37,20.469412 36.985035,20.0267049 36.921769,18.6401166 C36.8586578,17.2564182 36.6388781,16.3114018 36.3175426,15.484506 C35.9853188,14.6296411 35.5408055,13.9046624 34.8180974,13.1819026 C34.0953376,12.4591945 33.3703589,12.0146812 32.515494,11.682509 C31.6885982,11.3611219 30.7435818,11.1413422 29.3598834,11.078231 C27.9732951,11.014965 27.530588,11 24.0000258,11 Z M24.0000258,13.3423382 C27.4711407,13.3423382 27.882318,13.3556003 29.2531156,13.4181438 C30.5206027,13.4759398 31.2089429,13.6877209 31.6670279,13.8657533 C32.2738344,14.1015816 32.7068917,14.3832856 33.1617772,14.8382228 C33.6167144,15.2931083 33.8984184,15.7261656 34.1342467,16.3329721 C34.3122791,16.7910571 34.5240602,17.4793973 34.5818562,18.7468844 C34.6443997,20.117682 34.6576618,20.5288593 34.6576618,24.0000258 C34.6576618,27.4711407 34.6443997,27.882318 34.5818562,29.2531156 C34.5240602,30.5206027 34.3122791,31.2089429 34.1342467,31.6670279 C33.8984184,32.2738344 33.6167144,32.7068917 33.1617772,33.1617772 C32.7068917,33.6167144 32.2738344,33.8984184 31.6670279,34.1342467 C31.2089429,34.3122791 30.5206027,34.5240602 29.2531156,34.5818562 C27.8825244,34.6443997 27.4713987,34.6576618 24.0000258,34.6576618 C20.5286013,34.6576618 20.1175272,34.6443997 18.7468844,34.5818562 C17.4793973,34.5240602 16.7910571,34.3122791 16.3329721,34.1342467 C15.7261656,33.8984184 15.2931083,33.6167144 14.8382228,33.1617772 C14.3833372,32.7068917 14.1015816,32.2738344 13.8657533,31.6670279 C13.6877209,31.2089429 13.4759398,30.5206027 13.4181438,29.2531156 C13.3556003,27.882318 13.3423382,27.4711407 13.3423382,24.0000258 C13.3423382,20.5288593 13.3556003,20.117682 13.4181438,18.7468844 C13.4759398,17.4793973 13.6877209,16.7910571 13.8657533,16.3329721 C14.1015816,15.7261656 14.3832856,15.2931083 14.8382228,14.8382228 C15.2931083,14.3832856 15.7261656,14.1015816 16.3329721,13.8657533 C16.7910571,13.6877209 17.4793973,13.4759398 18.7468844,13.4181438 C20.117682,13.3556003 20.5288593,13.3423382 24.0000258,13.3423382 Z M24.0000258,17.3243285 C20.3131047,17.3243285 17.3243285,20.3131047 17.3243285,24.0000258 C17.3243285,27.6868953 20.3131047,30.6756715 24.0000258,30.6756715 C27.6868953,30.6756715 30.6756715,27.6868953 30.6756715,24.0000258 C30.6756715,20.3131047 27.6868953,17.3243285 24.0000258,17.3243285 Z M24.0000258,28.3333333 C21.6067549,28.3333333 19.6666667,26.3932451 19.6666667,24.0000258 C19.6666667,21.6067549 21.6067549,19.6666667 24.0000258,19.6666667 C26.3932451,19.6666667 28.3333333,21.6067549 28.3333333,24.0000258 C28.3333333,26.3932451 26.3932451,28.3333333 24.0000258,28.3333333 Z M32.4994453,17.0605826 C32.4994453,17.922156 31.8009908,18.6205589 30.9394174,18.6205589 C30.0778956,18.6205589 29.3794411,17.922156 29.3794411,17.0605826 C29.3794411,16.1990092 30.0778956,15.5005547 30.9394174,15.5005547 C31.8009908,15.5005547 32.4994453,16.1990092 32.4994453,17.0605826 Z" id="Instagram" fill="#444444"></path>
                </g>
            </g>
        </g>
    </g>
</svg>